<svg xmlns="http://www.w3.org/2000/svg" viewBox="0 0 1000 1000">
	<defs>
		<linearGradient id="fillGrad1" x1="0" y1="0" x2="1" y2="1">
			<stop offset="0%" stop-color="#FFBB00" />
			<stop offset="100%" stop-color="#FF6600" />
		</linearGradient>
		<linearGradient id="fillGrad2" x1="0" y1="0" x2="1" y2="1">
			<stop offset="0%" stop-color="#4D1C00" />
			<stop offset="100%" stop-color="#800000" />
		</linearGradient>
	</defs>
	<path fill="#000000" d="M500,0C850,0,1000,150,1000,500C1000,850,850,1000,500,1000C150,1000,0,850,0,500C0,150,150,0,500,0" />
	<path fill="url(#fillGrad1)" d="M700,450L750,450L750,550L800,550L800,750L750,750L750,800L700,800L700,850L350,850L350,800L250,800L250,750L200,750L200,500L250,500L250,450L300,450L300,400L350,400L350,350L400,350L400,300L350,300L350,200L400,200L400,150L600,150L600,200L750,200L750,250L800,250L800,350L750,350L750,400L700,400L700,450z" />
	<path fill="url(#fillGrad2)" d="M550,550L550,600L600,600L600,450L700,450L700,400L450,400L450,350L350,350L350,400L400,400L400,450L500,450L500,550L550,550z" />
	<path fill="url(#fillGrad2)" d="M600,200L600,250L650,250L650,300L550,300L550,250L500,250L500,200L600,200z" />
	<path fill="url(#fillGrad2)" d="M425,725L425,600L375,600L375,575L525,575L525,600L475,600L475,750L375,750L375,725L425,725z" />
	<path fill="url(#fillGrad2)" d="M600,725L600,700L500,700L500,625L650,625L650,650L550,650L550,675L650,675L650,750L500,750L500,725L600,725z" />
	<path fill="url(#fillGrad2)" d="M400,700L400,650L350,650L350,700L400,700z" />
</svg>